<?xml version="1.0" encoding="utf-8"?>
<!-- Generator: Adobe Illustrator 19.0.0, SVG Export Plug-In . SVG Version: 6.00 Build 0)  -->
<svg version="1.0" id="Layer_1" xmlns="http://www.w3.org/2000/svg" xmlns:xlink="http://www.w3.org/1999/xlink" x="0px" y="0px"
	 width="38.7px" height="38.7px" viewBox="-286 377.3 38.7 38.7" style="enable-background:new -286 377.3 38.7 38.7;"
	 xml:space="preserve">
<style type="text/css">
	.st0{fill:url(#Ellipse_3-2_1_);}
	.st1{opacity:0.11;}
	.st2{fill:none;stroke:#000000;stroke-width:2;stroke-miterlimit:10;}
	.st3{fill:none;stroke:#FFFFFF;stroke-width:2;stroke-miterlimit:10;}
</style>
<g transform="matrix(1, 0, 0, 1, 422.5, 663.5)">
	<linearGradient id="Ellipse_3-2_1_" gradientUnits="userSpaceOnUse" x1="-708.15" y1="-266.85" x2="-670.15" y2="-266.85">
		<stop  offset="0" style="stop-color:#D42300"/>
		<stop  offset="0.99" style="stop-color:#FF9063"/>
	</linearGradient>
	<circle id="Ellipse_3-2" class="st0" cx="-689.2" cy="-266.9" r="19"/>
</g>
<g id="XMLID_58_" transform="translate(437.181 687.588) rotate(-30)" class="st1">
	<path id="XMLID_61_" class="st2" d="M-469.6-598.4v-11.2c0-2,1.6-3.6,3.6-3.6l0,0l0,0c2,0,3.6,1.6,3.6,3.6l0,0v11.2"/>
	<path id="XMLID_62_" class="st2" d="M-458.6-609.4v11.2c0,2-1.6,3.6-3.6,3.6l0,0l0,0c-2,0-3.6-1.6-3.6-3.6l0,0v-11.2"/>
</g>
<g id="XMLID_58_2" transform="translate(436.181 687.588) rotate(-30)">
	<path id="XMLID_61_2" class="st3" d="M-468.7-597.9v-11.2c0-2,1.6-3.6,3.6-3.6l0,0l0,0c2,0,3.6,1.6,3.6,3.6l0,0v11.2"/>
	<path id="XMLID_62_2" class="st3" d="M-457.7-608.9v11.2c0,2-1.6,3.6-3.6,3.6l0,0l0,0c-2,0-3.6-1.6-3.6-3.6l0,0v-11.2"/>
</g>
</svg>
