<?xml version="1.0" encoding="utf-8"?>
<!-- Generator: Adobe Illustrator 19.0.0, SVG Export Plug-In . SVG Version: 6.00 Build 0)  -->
<svg version="1.0" id="Layer_1" xmlns="http://www.w3.org/2000/svg" xmlns:xlink="http://www.w3.org/1999/xlink" x="0px" y="0px"
	 width="128px" height="93px" viewBox="27.5 -1.9 128 93" style="enable-background:new 27.5 -1.9 128 93;" xml:space="preserve">
<style type="text/css">
	.st0{fill:#0640FF;}
	.st1{fill:#FFFFFF;}
</style>
<g transform="translate(-1687.066 -824)">
	<g transform="matrix(1, 0, 0, 1, 1687.07, 824)">
		<path class="st0" d="M125.4,60.5c0,0,16.2-1.7,26.3,17.2c0.7,2.7-0.3-34.8-28.7-34.5S125.4,60.5,125.4,60.5z"/>
	</g>
	<g transform="matrix(1, 0, 0, 1, 1687.07, 824)">
		<path class="st0" d="M82.5,2.1c31,0,56.1,17.8,56.1,48.8S106,88,75,88S30,75.4,30,44.4S51.6,2.1,82.5,2.1z"/>
	</g>
	<ellipse class="st1" cx="1753.4" cy="870.4" rx="6.1" ry="6.1"/>
	<ellipse class="st1" cx="1771.4" cy="870.4" rx="6.1" ry="6.1"/>
	<ellipse class="st1" cx="1789.4" cy="870.4" rx="6.1" ry="6.1"/>
</g>
</svg>
