<?xml version="1.0" encoding="utf-8"?>
<!-- Generator: Adobe Illustrator 19.0.0, SVG Export Plug-In . SVG Version: 6.00 Build 0)  -->
<svg version="1.0" id="Layer_1" xmlns="http://www.w3.org/2000/svg" xmlns:xlink="http://www.w3.org/1999/xlink" x="0px" y="0px"
	 width="93px" height="93px" viewBox="0.4 4.8 93 93" style="enable-background:new 0.4 4.8 93 93;" xml:space="preserve">
<style type="text/css">
	.st0{fill:#0640FF;}
	.st1{fill:none;}
	.st2{fill:none;stroke:#F9A45A;stroke-width:10;}
</style>
<g transform="translate(-701.265 -1064)">
	<path class="st0" d="M756.2,1092.1c24.9,0,36.7,7.8,36.7,32.7s-6.5,32.7-31.5,32.7c-24.9,0-58.8-7.8-58.8-32.7
		S731.3,1092.1,756.2,1092.1z"/>
	<g transform="matrix(1, 0, 0, 1, 701.27, 1064)">
		<g transform="translate(28.73 6)">
			<path class="st1" d="M32.5,3.2L32.5,3.2c16.6,0,30.1,13.5,30.1,30.1l0,0c0,16.6-13.5,30.1-30.1,30.1l0,0
				c-16.6,0-30.1-13.5-30.1-30.1l0,0C2.5,16.6,15.9,3.2,32.5,3.2z"/>
			<path class="st2" d="M32.5,8.4L32.5,8.4c13.7,0,24.9,11.1,24.9,24.9l0,0c0,13.7-11.1,24.9-24.9,24.9l0,0
				C18.8,58.1,7.6,47,7.6,33.2l0,0C7.6,19.5,18.8,8.4,32.5,8.4z"/>
		</g>
	</g>
</g>
</svg>
