<?xml version="1.0" encoding="utf-8"?>
<!-- Generator: Adobe Illustrator 19.0.0, SVG Export Plug-In . SVG Version: 6.00 Build 0)  -->
<svg version="1.0" id="Layer_1" xmlns="http://www.w3.org/2000/svg" xmlns:xlink="http://www.w3.org/1999/xlink" x="0px" y="0px"
	 width="93px" height="93px" viewBox="-8 -0.6 93 93" style="enable-background:new -8 -0.6 93 93;" xml:space="preserve">
<style type="text/css">
	.st0{fill:#0640FF;}
	.st1{fill:none;stroke:#F9A45A;stroke-width:10;}
	.st2{fill:#F9A45A;}
</style>
<g transform="translate(-357.265 -1070)">
	<path class="st0" d="M403.9,1089.6c24,0,35.4,7.5,35.4,31.6s-6.3,31.5-30.4,31.5s-56.7-7.5-56.7-31.5S379.9,1089.6,403.9,1089.6z"
		/>
	<g transform="translate(9.392 14.095)">
		<g transform="matrix(1, 0, 0, 1, 347.87, 1055.9)">
			<path class="st1" d="M16.8,86.5l18.9-18.9l-13-13.7l22.1-6.5V31.2l18.9-19.5"/>
		</g>
		<g transform="translate(401.383 1055.905)">
			<path class="st2" d="M17.4,20.3L1,3.9h16.4V20.3z"/>
			<path class="st2" d="M14.9,14.3V6.4H7.1L14.9,14.3 M19.9,26.3L-5,1.4h24.9V26.3z"/>
		</g>
	</g>
</g>
</svg>
