<?xml version="1.0" encoding="utf-8"?>
<!-- Generator: Adobe Illustrator 19.0.0, SVG Export Plug-In . SVG Version: 6.00 Build 0)  -->
<svg version="1.0" id="Layer_1" xmlns="http://www.w3.org/2000/svg" xmlns:xlink="http://www.w3.org/1999/xlink" x="0px" y="0px"
	 width="93px" height="93px" viewBox="11.4 4.8 93 93" style="enable-background:new 11.4 4.8 93 93;" xml:space="preserve">
<style type="text/css">
	.st0{fill:#0640FF;}
	.st1{fill:#F9A45A;}
	.st2{fill:none;stroke:#F9A45A;stroke-width:10;}
	.st3{fill:none;stroke:#0640FF;stroke-width:8;}
</style>
<path class="st0" d="M59.2,35c21.6,0,31.8,6.7,31.8,28.3s-5.7,28.3-27.2,28.3s-50.9-6.7-50.9-28.3S37.6,35,59.2,35z"/>
<g transform="matrix(1, 0, 0, 1, 1317.27, 1058)">
	<g transform="translate(32.73 6)">
		<path class="st1" d="M-1278.2-1050.7L-1278.2-1050.7c16.3,0,29.6,13.2,29.6,29.6l0,0c0,16.3-13.2,29.6-29.6,29.6l0,0
			c-16.3,0-29.6-13.2-29.6-29.6l0,0C-1307.8-1037.4-1294.6-1050.7-1278.2-1050.7z"/>
		<path class="st2" d="M-1278.2-1046.2L-1278.2-1046.2c13.9,0,25.1,11.2,25.1,25.1l0,0c0,13.9-11.2,25.1-25.1,25.1l0,0
			c-13.9,0-25.1-11.2-25.1-25.1l0,0C-1303.3-1035-1292.1-1046.2-1278.2-1046.2z"/>
	</g>
</g>
<path class="st3" d="M63.7,53.7l11.7-11.1L67.3,27"/>
</svg>
