<?xml version="1.0" encoding="utf-8"?>
<!-- Generator: Adobe Illustrator 19.0.0, SVG Export Plug-In . SVG Version: 6.00 Build 0)  -->
<svg version="1.1" id="Layer_1" xmlns="http://www.w3.org/2000/svg" xmlns:xlink="http://www.w3.org/1999/xlink" x="0px" y="0px"
	 width="38px" height="38px" viewBox="-12 32.4 38 38" style="enable-background:new -12 32.4 38 38;" xml:space="preserve">
<style type="text/css">
	.st0{opacity:0.13;fill:#F13333;enable-background:new    ;}
	.st1{enable-background:new    ;}
	.st2{fill:#F13333;}
</style>
<g transform="translate(-403.989 -3865)">
	<g transform="matrix(1, 0, 0, 1, 403.99, 3865)">
		<path class="st0" d="M-7.1,46c4.6-9,11.4-14.8,20.4-10.2s13.9,9.1,9.4,18.1S5.8,73-3.2,68.5S-11.7,55-7.1,46z"/>
	</g>
	<g class="st1">
		<path class="st2" d="M414.1,3924.7c-5.6,0-7.8-1.5-7.8-3.9c0-1.9,1.1-2.9,3-3.2v-0.4c-1.4-0.4-2.2-1.4-2.2-2.8
			c0-1.7,1.5-2.6,3.1-3v-0.1c-2-0.9-3-2.7-3-4.9c0-3.4,2.4-5.7,6.9-5.7c1,0,2.1,0.1,2.9,0.4v-0.5c0-1.6,0.8-2.4,2.4-2.4h2.6v3.1
			h-3.6v0.4c1.7,1,2.6,2.6,2.6,4.7c0,3.4-2.4,5.6-6.9,5.6c-1,0-1.8-0.1-2.6-0.3c-0.6,0.3-1.2,0.8-1.2,1.5c0,0.8,0.7,1.3,2.2,1.3h4.5
			c4.1,0,5.9,1.8,5.9,4.8C422.9,3922.8,420.5,3924.7,414.1,3924.7z M416.2,3918.1h-5.7c-0.6,0.4-0.9,1.1-0.9,1.7
			c0,1.3,1,2.1,3.5,2.1h2.1c2.7,0,3.9-0.7,3.9-2.1C419.1,3918.7,418.3,3918.1,416.2,3918.1z M417.1,3906.7v-0.5c0-1.7-1.1-2.6-3-2.6
			s-3,0.9-3,2.6v0.5c0,1.7,1.1,2.6,3,2.6S417.1,3908.3,417.1,3906.7z"/>
	</g>
</g>
</svg>
