<?xml version="1.0" encoding="utf-8"?>
<!-- Generator: Adobe Illustrator 19.0.0, SVG Export Plug-In . SVG Version: 6.00 Build 0)  -->
<svg version="1.1" id="Layer_1" xmlns="http://www.w3.org/2000/svg" xmlns:xlink="http://www.w3.org/1999/xlink" x="0px" y="0px"
	 width="38px" height="38px" viewBox="-18 32 38 38" style="enable-background:new -18 32 38 38;" xml:space="preserve">
<style type="text/css">
	.st0{opacity:0.13;fill:#0073B1;enable-background:new    ;}
	.st1{enable-background:new    ;}
	.st2{fill:#0073B1;}
</style>
<g transform="matrix(1, 0, 0, 1, 529, 3870.13)">
	<path class="st0" d="M-528-3831.8c10.3,0,18.6,3.6,18.6,13.9c0,10.3-1.9,16.8-12.2,16.8c-10.3,0-25-6.5-25-16.8
		C-546.6-3828.2-538.2-3831.8-528-3831.8z"/>
</g>
<g class="st1">
	<path class="st2" d="M-5.8,36.2v-0.6c0-1.2,0.7-2.1,2.4-2.1c1.7,0,2.4,0.9,2.4,2.1v0.6c0,1.2-0.7,2.1-2.4,2.1
		C-5.1,38.2-5.8,37.4-5.8,36.2z M-5.4,40.7h4.2v17h-4.2V40.7z"/>
	<path class="st2" d="M3.4,57.7v-17h4.2v2.8h0.2c0.7-1.8,2.1-3.2,4.7-3.2c3.5,0,5.4,2.4,5.4,6.6v10.7h-4.2V47.4
		c0-2.4-0.8-3.6-2.8-3.6c-1.7,0-3.4,0.9-3.4,2.7v11.2H3.4z"/>
</g>
</svg>
