<?xml version="1.0" encoding="utf-8"?>
<!-- Generator: Adobe Illustrator 19.0.0, SVG Export Plug-In . SVG Version: 6.00 Build 0)  -->
<svg version="1.0" id="Layer_1" xmlns="http://www.w3.org/2000/svg" xmlns:xlink="http://www.w3.org/1999/xlink" x="0px" y="0px"
	 width="68.9px" height="53.2px" viewBox="-15 24.8 68.9 53.2" style="enable-background:new -15 24.8 68.9 53.2;"
	 xml:space="preserve">
<style type="text/css">
	.st0{opacity:0.71;fill:#F9A45A;enable-background:new    ;}
	.st1{opacity:0.71;fill:#0640FF;enable-background:new    ;}
	.st2{fill:#4D77FF;}
	.st3{fill:#FABE89;}
</style>
<g transform="translate(-354.413 -29.058)">
	<path class="st0" d="M385.8,64.7c14.8,0,21.9,4.6,21.9,19.5s-3.9,19.5-18.7,19.5s-35-4.6-35-19.5S371,64.7,385.8,64.7z"/>
	<path class="st1" d="M366.3,100.7c-17.6,0-26-5.5-26-23.1s4.6-23.1,22.3-23.1s41.6,5.5,41.6,23.1S384,100.7,366.3,100.7z"/>
	<path class="st2" d="M343.6,89.2c3.6-1,7.5-0.1,10.2,2.5c0,0-13.4,5.3-13.1,10.9S337.6,91,343.6,89.2z"/>
	<path class="st3" d="M404.4,92c-5.2-1.8-8.9,2.5-8.9,2.5s11.7,5.3,11.4,10.9S409.6,93.8,404.4,92z"/>
</g>
</svg>
