<?xml version="1.0" encoding="utf-8"?>
<!-- Generator: Adobe Illustrator 19.0.0, SVG Export Plug-In . SVG Version: 6.00 Build 0)  -->
<svg version="1.1" id="Layer_1" xmlns="http://www.w3.org/2000/svg" xmlns:xlink="http://www.w3.org/1999/xlink" x="0px" y="0px"
	 width="38px" height="38px" viewBox="-8.4 32.3 38 38" style="enable-background:new -8.4 32.3 38 38;" xml:space="preserve">
<style type="text/css">
	.st0{opacity:0.13;fill:#1DA1F2;enable-background:new    ;}
	.st1{enable-background:new    ;}
	.st2{fill:#1DA1F2;}
</style>
<g transform="translate(-465.44 -3867.272)">
	<g transform="matrix(1, 0, 0, 1, 465.44, 3867.27)">
		<path class="st0" d="M18.8,64.4c-8.4,5.2-17,6.5-22.2-1.8S-10.4,48-2,42.7s23.7-7.4,28.9,1S27.1,59.2,18.8,64.4z"/>
	</g>
	<g class="st1">
		<path class="st2" d="M473.4,3921v-9.6h-2.6v-3.4h1.3c1.3,0,1.7-0.6,1.7-1.8v-3h3.8v4.8h3.6v3.4h-3.6v10.6h3.3v3.4h-3.1
			C474.9,3925.5,473.4,3923.9,473.4,3921z"/>
	</g>
</g>
</svg>
