<svg xmlns="http://www.w3.org/2000/svg" xmlns:xlink="http://www.w3.org/1999/xlink" viewBox="0 0 1920 2107">
  <defs>
    <style>
      .cls-1 {
        clip-path: url(#clip-Web_1920_2);
      }

      .cls-2, .cls-6, .cls-7 {
        fill: #fff;
      }

      .cls-12, .cls-13, .cls-18, .cls-20, .cls-21, .cls-3, .cls-4 {
        fill: #282580;
      }

      .cls-3, .cls-6 {
        font-size: 16px;
      }

      .cls-18, .cls-20, .cls-3, .cls-4, .cls-6, .cls-7 {
        font-family: IBMPlexSans-Medium, IBM Plex Sans;
        font-weight: 500;
      }

      .cls-19, .cls-4 {
        font-size: 18px;
      }

      .cls-17, .cls-5, .cls-9 {
        fill: #0640ff;
      }

      .cls-21, .cls-7 {
        font-size: 20px;
      }

      .cls-32, .cls-8 {
        fill: #f9a45a;
      }

      .cls-8, .cls-9 {
        opacity: 0.71;
      }

      .cls-10, .cls-24 {
        fill: #4d77ff;
      }

      .cls-11 {
        fill: #fabe89;
      }

      .cls-12 {
        font-size: 40px;
      }

      .cls-12, .cls-21, .cls-28, .cls-29, .cls-30 {
        font-family: IBMPlexSans-SemiBold, IBM Plex Sans;
        font-weight: 600;
        letter-spacing: -0.005em;
      }

      .cls-13, .cls-23 {
        font-size: 15px;
      }

      .cls-13, .cls-14, .cls-19, .cls-22, .cls-23 {
        font-family: IBMPlexSans, IBM Plex Sans;
      }

      .cls-14 {
        fill: #7b808b;
        font-size: 19px;
      }

      .cls-15, .cls-16 {
        fill: none;
      }

      .cls-16 {
        stroke: #0640ff;
      }

      .cls-17 {
        stroke: #707070;
      }

      .cls-18, .cls-29 {
        font-size: 30px;
      }

      .cls-19 {
        fill: #807f9b;
        letter-spacing: 0.02em;
      }

      .cls-20 {
        font-size: 43px;
      }

      .cls-22 {
        fill: #8e8d9c;
        font-size: 13px;
      }

      .cls-23 {
        fill: #818181;
      }

      .cls-24, .cls-25, .cls-26, .cls-27 {
        opacity: 0.13;
      }

      .cls-25, .cls-28 {
        fill: #f13333;
      }

      .cls-26, .cls-29 {
        fill: #22b1f1;
      }

      .cls-27, .cls-30 {
        fill: #3976ac;
      }

      .cls-28, .cls-30 {
        font-size: 28px;
      }

      .cls-31 {
        opacity: 0.23;
      }

      .cls-33 {
        stroke: none;
      }

      .cls-34 {
        filter: url(#Path_36);
      }

      .cls-35 {
        filter: url(#Path_35);
      }

      .cls-36 {
        filter: url(#Path_34);
      }
    </style>
    <filter id="Path_34" x="349.989" y="1791.687" width="56.073" height="58.544" filterUnits="userSpaceOnUse">
      <feOffset dy="3" input="SourceAlpha"/>
      <feGaussianBlur stdDeviation="3" result="blur"/>
      <feFlood flood-opacity="0.161"/>
      <feComposite operator="in" in2="blur"/>
      <feComposite in="SourceGraphic"/>
    </filter>
    <filter id="Path_35" x="411.44" y="1791.272" width="59.171" height="57.373" filterUnits="userSpaceOnUse">
      <feOffset dy="3" input="SourceAlpha"/>
      <feGaussianBlur stdDeviation="3" result="blur-2"/>
      <feFlood flood-opacity="0.161"/>
      <feComposite operator="in" in2="blur-2"/>
      <feComposite in="SourceGraphic"/>
    </filter>
    <filter id="Path_36" x="475" y="1799.759" width="50.052" height="44.4" filterUnits="userSpaceOnUse">
      <feOffset dy="3" input="SourceAlpha"/>
      <feGaussianBlur stdDeviation="3" result="blur-3"/>
      <feFlood flood-opacity="0.161"/>
      <feComposite operator="in" in2="blur-3"/>
      <feComposite in="SourceGraphic"/>
    </filter>
    <clipPath id="clip-Web_1920_2">
      <rect width="1920" height="2107"/>
    </clipPath>
  </defs>
  <g id="Web_1920_2" data-name="Web 1920 – 2" class="cls-1">
    <rect class="cls-2" width="1920" height="2107"/>
    <rect id="Rectangle_12" data-name="Rectangle 12" class="cls-2" width="1270" height="4211" transform="translate(325 3)"/>
    <text id="Features" class="cls-3" transform="translate(507 57)"><tspan x="0" y="0">Features</tspan></text>
    <text id="Pricing" class="cls-3" transform="translate(645 57)"><tspan x="0" y="0">Pricing</tspan></text>
    <text id="Templates" class="cls-3" transform="translate(767 57)"><tspan x="0" y="0">Templates</tspan></text>
    <text id="Monthly" class="cls-4" transform="translate(825 554)"><tspan x="0" y="0">Monthly</tspan></text>
    <text id="Annual" class="cls-4" transform="translate(1006 554)"><tspan x="0" y="0">Annual</tspan></text>
    <text id="Login" class="cls-3" transform="translate(1314 57)"><tspan x="0" y="0">Login</tspan></text>
    <rect id="Rectangle_13" data-name="Rectangle 13" class="cls-5" width="150.001" height="47.191" rx="4" transform="translate(1398 26)"/>
    <rect id="Rectangle_21" data-name="Rectangle 21" class="cls-5" width="323.999" height="66.067" rx="4" transform="translate(1026 1415.562)"/>
    <text id="Signup" class="cls-6" transform="translate(1448 56)"><tspan x="0" y="0">Signup</tspan></text>
    <text id="Getting_Started" data-name="Getting Started" class="cls-7" transform="translate(1118 1456.162)"><tspan x="0" y="0">Getting Started</tspan></text>
    <g id="Group_25" data-name="Group 25" transform="translate(9)">
      <path id="Path_10" data-name="Path 10" class="cls-8" d="M32.49,0C47.613,0,54.764,4.723,54.764,19.846S50.795,39.691,35.672,39.691,0,34.968,0,19.846,17.367,0,32.49,0Z" transform="translate(368.557 39.628)"/>
      <path id="Path_11" data-name="Path 11" class="cls-9" d="M38.62,0C56.6,0,65.1,5.614,65.1,23.59S60.378,47.18,42.4,47.18,0,41.566,0,23.59,20.644,0,38.62,0Z" transform="translate(419.789 76.238) rotate(180)"/>
      <path id="Path_12" data-name="Path 12" class="cls-10" d="M1145.595,206.829a11.058,11.058,0,0,1,10.434,2.519s-13.673,5.4-13.313,11.154S1139.478,208.628,1145.595,206.829Z" transform="translate(-787.576 -142.292)"/>
      <path id="Path_13" data-name="Path 13" class="cls-11" d="M1151.08,206.829c-5.329-1.8-9.091,2.519-9.091,2.519s11.913,5.4,11.6,11.154S1156.41,208.628,1151.08,206.829Z" transform="translate(-731.078 -139.414)"/>
    </g>
    <text id="Simple_and_Transparent_Pricing" data-name="Simple and Transparent Pricing" class="cls-12" transform="translate(640 297)"><tspan x="0" y="41">Simple and Transparent Pricing</tspan></text>
    <text id="Simple_and_Transparent_Pricing-2" data-name="Simple and Transparent Pricing" class="cls-13" transform="translate(316 1112)"><tspan x="0" y="15">Simple and Transparent Pricing</tspan></text>
    <text id="Simple_and_Transparent_Pricing-3" data-name="Simple and Transparent Pricing" class="cls-13" transform="translate(316 976)"><tspan x="0" y="15">Simple and Transparent Pricing</tspan></text>
    <text id="Simple_and_Transparent_Pricing-4" data-name="Simple and Transparent Pricing" class="cls-13" transform="translate(316 1248)"><tspan x="0" y="15">Simple and Transparent Pricing</tspan></text>
    <text id="Simple_and_Transparent_Pricing-5" data-name="Simple and Transparent Pricing" class="cls-13" transform="translate(316 908)"><tspan x="0" y="15">Simple and Transparent Pricing</tspan></text>
    <text id="Unlimited" class="cls-13" transform="translate(665 908)"><tspan x="89.748" y="15">Unlimited</tspan></text>
    <text id="Unlimited-2" data-name="Unlimited" class="cls-13" transform="translate(1065 908)"><tspan x="89.748" y="15">Unlimited</tspan></text>
    <text id="Unlimited-3" data-name="Unlimited" class="cls-13" transform="translate(1472 908)"><tspan x="89.748" y="15">Unlimited</tspan></text>
    <text id="_30" data-name="30" class="cls-13" transform="translate(665 976)"><tspan x="113.5" y="15">30</tspan></text>
    <text id="_30-2" data-name="30" class="cls-13" transform="translate(1065 976)"><tspan x="113.5" y="15">30</tspan></text>
    <text id="_30-3" data-name="30" class="cls-13" transform="translate(1472 976)"><tspan x="113.5" y="15">30</tspan></text>
    <text id="_30-4" data-name="30" class="cls-13" transform="translate(665 1044)"><tspan x="113.5" y="15">30</tspan></text>
    <text id="_30-5" data-name="30" class="cls-13" transform="translate(1065 1044)"><tspan x="113.5" y="15">30</tspan></text>
    <text id="_30-6" data-name="30" class="cls-13" transform="translate(1472 1044)"><tspan x="113.5" y="15">30</tspan></text>
    <text id="_0" data-name="0" class="cls-13" transform="translate(665 1112)"><tspan x="118" y="15">0</tspan></text>
    <text id="_0-2" data-name="0" class="cls-13" transform="translate(1065 1112)"><tspan x="118" y="15">0</tspan></text>
    <text id="_0-3" data-name="0" class="cls-13" transform="translate(1472 1112)"><tspan x="118" y="15">0</tspan></text>
    <text id="_0-4" data-name="0" class="cls-13" transform="translate(665 1180)"><tspan x="118" y="15">0</tspan></text>
    <text id="_0-5" data-name="0" class="cls-13" transform="translate(1065 1180)"><tspan x="118" y="15">0</tspan></text>
    <text id="_0-6" data-name="0" class="cls-13" transform="translate(1472 1180)"><tspan x="118" y="15">0</tspan></text>
    <text id="_0-7" data-name="0" class="cls-13" transform="translate(665 1248)"><tspan x="118" y="15">0</tspan></text>
    <text id="_0-8" data-name="0" class="cls-13" transform="translate(1065 1248)"><tspan x="118" y="15">0</tspan></text>
    <text id="_0-9" data-name="0" class="cls-13" transform="translate(1472 1248)"><tspan x="118" y="15">0</tspan></text>
    <text id="_0-10" data-name="0" class="cls-13" transform="translate(665 1310)"><tspan x="118" y="15">0</tspan></text>
    <text id="_0-11" data-name="0" class="cls-13" transform="translate(1065 1310)"><tspan x="118" y="15">0</tspan></text>
    <text id="_0-12" data-name="0" class="cls-13" transform="translate(1472 1310)"><tspan x="118" y="15">0</tspan></text>
    <text id="Simple_and_Transparent_Pricing-6" data-name="Simple and Transparent Pricing" class="cls-13" transform="translate(316 1180)"><tspan x="0" y="15">Simple and Transparent Pricing</tspan></text>
    <text id="Simple_and_Transparent_Pricing-7" data-name="Simple and Transparent Pricing" class="cls-13" transform="translate(316 1044)"><tspan x="0" y="15">Simple and Transparent Pricing</tspan></text>
    <text id="Simple_and_Transparent_Pricing-8" data-name="Simple and Transparent Pricing" class="cls-13" transform="translate(316 1316)"><tspan x="0" y="15">Simple and Transparent Pricing</tspan></text>
    <text id="Zapier_gives_you_the_power_to_integrate_Collect.chat_with_hundreds_of_apps_like_Salesforce_Google_sheets_Slack_and_more._Now_you_can_easily_automate_the_tedious_tasks_in_your_workflow." data-name="Zapier gives you the power to integrate Collect.chat with hundreds of apps like Salesforce, Google sheets, Slack and more. Now you can easily automate the tedious tasks in your workflow." class="cls-14" transform="translate(438 380)"><tspan x="10.183" y="19">Zapier gives you the power to integrate Collect.chat with hundreds of apps like Salesforce, Google sheets, Slack and more. </tspan><tspan x="253.64" y="52">Now you can easily automate the tedious tasks in your workflow.</tspan></text>
    <rect id="Rectangle_14" data-name="Rectangle 14" class="cls-15" width="385.29" height="686.86" transform="translate(595 692)"/>
    <rect id="Rectangle_18" data-name="Rectangle 18" class="cls-15" width="385.29" height="686.86" transform="translate(995 692)"/>
    <rect id="Rectangle_19" data-name="Rectangle 19" class="cls-15" width="385.29" height="686.86" transform="translate(1402 692)"/>
    <g id="Rectangle_15" data-name="Rectangle 15" class="cls-16" transform="translate(994 692)">
      <rect class="cls-33" width="385.29" height="814.86"/>
      <rect class="cls-15" x="0.5" y="0.5" width="384.29" height="813.86"/>
    </g>
    <rect id="Rectangle_16" data-name="Rectangle 16" class="cls-15" width="385.29" height="686.86" transform="translate(1388 692)"/>
    <g id="Rectangle_17" data-name="Rectangle 17" class="cls-16" transform="translate(913.408 528.004)">
      <rect class="cls-33" width="72.185" height="37.992" rx="18.996"/>
      <rect class="cls-15" x="0.5" y="0.5" width="71.185" height="36.992" rx="18.496"/>
    </g>
    <g id="Ellipse_11" data-name="Ellipse 11" class="cls-17" transform="translate(920.463 532.346)">
      <circle class="cls-33" cx="14.654" cy="14.654" r="14.654"/>
      <circle class="cls-15" cx="14.654" cy="14.654" r="14.154"/>
    </g>
    <text id="Features-2" data-name="Features" class="cls-18" transform="translate(346 775)"><tspan x="0" y="0">Features</tspan></text>
    <text id="_10_Month" data-name="$10/Month" class="cls-19" transform="translate(742 825)"><tspan x="0" y="0">$10/Month</tspan></text>
    <text id="_10_Month-2" data-name="$10/Month" class="cls-19" transform="translate(1141 825)"><tspan x="0" y="0">$10/Month</tspan></text>
    <text id="_10_Month-3" data-name="$10/Month" class="cls-19" transform="translate(1535 825)"><tspan x="0" y="0">$10/Month</tspan></text>
    <text id="Basic" class="cls-20" transform="translate(734 771)"><tspan x="0" y="0">Basic</tspan></text>
    <text id="Professional" class="cls-20" transform="translate(1065 779.789)"><tspan x="0" y="0">Professional</tspan></text>
    <text id="Expert" class="cls-20" transform="translate(1580 779.789)"><tspan x="-64.994" y="0">Expert</tspan></text>
    <text id="Connect_with_Us" data-name="Connect with Us" class="cls-21" transform="translate(298 1766)"><tspan x="0" y="0">Connect with Us</tspan></text>
    <text id="About_Us" data-name="About Us" class="cls-21" transform="translate(704 1766)"><tspan x="0" y="0">About Us</tspan></text>
    <text id="Chat_Api" data-name="Chat Api" class="cls-22" transform="translate(704 1810)"><tspan x="0" y="0">Chat Api</tspan></text>
    <text id="Chat_Api-2" data-name="Chat Api" class="cls-22" transform="translate(1012 1810)"><tspan x="0" y="0">Chat Api</tspan></text>
    <text id="Chat_Api-3" data-name="Chat Api" class="cls-22" transform="translate(1278 1810)"><tspan x="0" y="0">Chat Api</tspan></text>
    <text id="Support" class="cls-22" transform="translate(704 1841)"><tspan x="0" y="0">Support</tspan></text>
    <text id="Support-2" data-name="Support" class="cls-22" transform="translate(1012 1841)"><tspan x="0" y="0">Support</tspan></text>
    <text id="Support-3" data-name="Support" class="cls-22" transform="translate(1278 1841)"><tspan x="0" y="0">Support</tspan></text>
    <text id="Customer_Satisfation" data-name="Customer Satisfation" class="cls-22" transform="translate(704 1872)"><tspan x="0" y="0">Customer Satisfation</tspan></text>
    <text id="Customer_Satisfation-2" data-name="Customer Satisfation" class="cls-22" transform="translate(1012 1872)"><tspan x="0" y="0">Customer Satisfation</tspan></text>
    <text id="Customer_Satisfation-3" data-name="Customer Satisfation" class="cls-22" transform="translate(1278 1872)"><tspan x="0" y="0">Customer Satisfation</tspan></text>
    <text id="Dashboard" class="cls-22" transform="translate(704 1903)"><tspan x="0" y="0">Dashboard</tspan></text>
    <text id="Dashboard-2" data-name="Dashboard" class="cls-22" transform="translate(1012 1903)"><tspan x="0" y="0">Dashboard</tspan></text>
    <text id="Dashboard-3" data-name="Dashboard" class="cls-22" transform="translate(1278 1903)"><tspan x="0" y="0">Dashboard</tspan></text>
    <text id="About_Us-2" data-name="About Us" class="cls-21" transform="translate(1012 1766)"><tspan x="0" y="0">About Us</tspan></text>
    <text id="About_Us-3" data-name="About Us" class="cls-21" transform="translate(1278 1766)"><tspan x="0" y="0">About Us</tspan></text>
    <text id="Copyright_hudelabs_pvt_ltd" data-name="Copyright hudelabs pvt ltd" class="cls-23" transform="translate(298 2000)"><tspan x="0" y="0">Copyright hudelabs pvt ltd</tspan></text>
    <path id="Path_33" data-name="Path 33" class="cls-24" d="M16.026,4.092c8.851,0,16.026,3.083,16.026,11.934S30.431,30.492,21.58,30.492,0,24.877,0,16.026,7.175,4.092,16.026,4.092Z" transform="translate(302 1801.667)"/>
    <g class="cls-36" transform="matrix(1, 0, 0, 1, 0, 0)">
      <path id="Path_34-2" data-name="Path 34" class="cls-25" d="M16.026,4.092c8.851,0,16.026,3.083,16.026,11.934S30.431,30.492,21.58,30.492,0,24.877,0,16.026,7.175,4.092,16.026,4.092Z" transform="matrix(0.45, -0.89, 0.89, 0.45, 355.34, 1824.39)"/>
    </g>
    <g class="cls-35" transform="matrix(1, 0, 0, 1, 0, 0)">
      <path id="Path_35-2" data-name="Path 35" class="cls-26" d="M16.026,4.092c8.851,0,16.026,3.083,16.026,11.934S30.431,30.492,21.58,30.492,0,24.877,0,16.026,7.175,4.092,16.026,4.092Z" transform="matrix(-0.85, 0.53, -0.53, -0.85, 463.78, 1823.13)"/>
    </g>
    <g class="cls-34" transform="matrix(1, 0, 0, 1, 0, 0)">
      <path id="Path_36-2" data-name="Path 36" class="cls-27" d="M16.026,4.092c8.851,0,16.026,3.083,16.026,11.934S30.431,30.492,21.58,30.492,0,24.877,0,16.026,7.175,4.092,16.026,4.092Z" transform="translate(484 1801.67)"/>
    </g>
    <text id="g" class="cls-28" transform="translate(373.643 1818)"><tspan x="0" y="0">g</tspan></text>
    <text id="t" class="cls-29" transform="translate(435.183 1822.564)"><tspan x="0" y="0">t</tspan></text>
    <text id="in" class="cls-30" transform="translate(491.594 1823.128)"><tspan x="0" y="0">in</tspan></text>
    <g id="Group_26" data-name="Group 26" class="cls-31" transform="matrix(0.998, 0.07, -0.07, 0.998, 949.545, -1543.933)">
      <path id="Path_15" data-name="Path 15" class="cls-32" d="M431.4,0C632.2,0,727.161,62.712,727.161,263.512S674.455,527.025,473.655,527.025,0,464.312,0,263.512,230.6,0,431.4,0Z" transform="matrix(0.656, 0.755, -0.755, 0.656, 900.032, 3087.178)"/>
      <path id="Path_14" data-name="Path 14" class="cls-5" d="M431.4,0C632.2,0,727.161,62.713,727.161,263.513S674.455,527.025,473.655,527.025,0,464.313,0,263.512,230.6,0,431.4,0Z" transform="translate(675.817 4016.091) rotate(-121)"/>
    </g>
  </g>
</svg>
